<svg width="17" height="17" viewBox="0 0 17 17" fill="none" xmlns="http://www.w3.org/2000/svg">
<path d="M15.9599 9.07031C15.9599 8.55031 15.9133 8.05031 15.8266 7.57031H8.91992V10.4103H12.8666C12.6933 11.3236 12.1733 12.097 11.3933 12.617V14.4636H13.7733C15.1599 13.1836 15.9599 11.3036 15.9599 9.07031Z" fill="#4285F4"/>
<path d="M8.91971 16.238C10.8997 16.238 12.5597 15.5847 13.773 14.4647L11.393 12.618C10.7397 13.058 9.90638 13.3247 8.91971 13.3247C7.01305 13.3247 5.39305 12.038 4.81305 10.3047H2.37305V12.198C3.57971 14.5914 6.05305 16.238 8.91971 16.238Z" fill="#34A853"/>
<path d="M4.81358 10.2972C4.66691 9.85719 4.58025 9.39052 4.58025 8.90385C4.58025 8.41719 4.66691 7.95052 4.81358 7.51052V5.61719H2.37358C1.87358 6.60385 1.58691 7.71719 1.58691 8.90385C1.58691 10.0905 1.87358 11.2039 2.37358 12.1905L4.27358 10.7105L4.81358 10.2972Z" fill="#FBBC05"/>
<path d="M8.91971 4.49031C9.99971 4.49031 10.9597 4.86365 11.7264 5.58365L13.8264 3.48365C12.553 2.29698 10.8997 1.57031 8.91971 1.57031C6.05305 1.57031 3.57971 3.21698 2.37305 5.61698L4.81305 7.51031C5.39305 5.77698 7.01305 4.49031 8.91971 4.49031Z" fill="#EA4335"/>
</svg>
