<svg width="17" height="17" viewBox="0 0 17 17" fill="none" xmlns="http://www.w3.org/2000/svg">
<path d="M13.0866 7.74219H3.75326C3.01688 7.74219 2.41992 8.33914 2.41992 9.07552V13.7422C2.41992 14.4786 3.01688 15.0755 3.75326 15.0755H13.0866C13.823 15.0755 14.4199 14.4786 14.4199 13.7422V9.07552C14.4199 8.33914 13.823 7.74219 13.0866 7.74219Z" stroke="#6B7280" stroke-width="1.33333" stroke-linecap="round" stroke-linejoin="round"/>
<path d="M5.08691 7.74219V5.07552C5.08691 4.19147 5.4381 3.34362 6.06322 2.7185C6.68835 2.09338 7.53619 1.74219 8.42025 1.74219C9.3043 1.74219 10.1521 2.09338 10.7773 2.7185C11.4024 3.34362 11.7536 4.19147 11.7536 5.07552V7.74219" stroke="#6B7280" stroke-width="1.33333" stroke-linecap="round" stroke-linejoin="round"/>
</svg>
